<svg width="14" height="13" viewBox="0 0 14 13" fill="none" xmlns="http://www.w3.org/2000/svg">
<g clip-path="url(#clip0_41_57)">
<path d="M9.53724 7.57161C9.64459 7.32263 9.69905 7.05881 9.69797 6.79297C9.69797 6.20269 9.42781 5.6366 8.9469 5.21921C8.466 4.80182 7.81376 4.56734 7.13366 4.56734C6.83114 4.56764 6.53111 4.61489 6.24774 4.70684L6.84957 5.24541C6.94105 5.2327 7.03354 5.2262 7.12619 5.22594C7.60706 5.22507 8.06881 5.38937 8.41058 5.68297C8.75236 5.97657 8.94641 6.37561 8.95036 6.79297C8.95005 6.87338 8.94255 6.95365 8.92793 7.03305L9.53724 7.57161Z" fill="#C7D2D6"/>
<path d="M12.9389 6.64048C11.6792 4.61925 9.46997 3.39613 7.02527 3.39613C6.35966 3.39748 5.69851 3.49056 5.06653 3.6719L5.66836 4.19748C6.11164 4.09805 6.56744 4.04683 7.02527 4.045C9.1298 4.045 11.0437 5.06373 12.1838 6.77999C11.7656 7.41673 11.2111 7.97832 10.5503 8.43461L11.0811 8.89531C11.8459 8.35978 12.4811 7.69821 12.9501 6.9487L13.0473 6.79297L12.9389 6.64048Z" fill="#C7D2D6"/>
<path d="M1.94152 2.82836L3.6087 4.27535C2.55491 4.86424 1.69365 5.67878 1.10793 6.64048L1.01074 6.79297L1.10793 6.9487C2.36766 8.96993 4.57685 10.1931 7.02155 10.1931C7.97575 10.1929 8.91755 10.0054 9.7765 9.64476L11.6455 11.2669L12.2997 10.7803L2.58073 2.34496L1.94152 2.82836ZM5.58613 5.99161L8.07194 8.14911C7.79108 8.3 7.46774 8.38082 7.13743 8.3827C6.89742 8.38271 6.65978 8.34152 6.43818 8.26151C6.21658 8.1815 6.01539 8.06425 5.8462 7.9165C5.67701 7.76875 5.54316 7.59342 5.45233 7.4006C5.36151 7.20778 5.31551 7.00128 5.31699 6.79297C5.3212 6.5096 5.41425 6.23257 5.58613 5.99161ZM5.04411 5.52118C4.69439 5.94924 4.53048 6.4709 4.58138 6.99379C4.63229 7.51668 4.89474 8.00707 5.32227 8.37813C5.74979 8.74919 6.3148 8.97697 6.91726 9.02116C7.51972 9.06534 8.12076 8.92307 8.61396 8.61954L9.21205 9.13864C8.51968 9.39551 7.77452 9.52795 7.02155 9.52796C4.91702 9.52796 3.00313 8.50923 1.86302 6.79297C2.41016 5.9521 3.19815 5.24807 4.15072 4.74902L5.04411 5.52118Z" fill="#C7D2D6"/>
</g>
<defs>
<clipPath id="clip0_41_57">
<rect x="0.121094" y="0.953125" width="13.457" height="11.6797" rx="5.83984" fill="white"/>
</clipPath>
</defs>
</svg>
