<svg width="42" height="40" viewBox="0 0 42 40" fill="none" xmlns="http://www.w3.org/2000/svg">
<path d="M8.75 21.266C8.75 19.0031 8.75 17.8716 9.23031 16.8771C9.71061 15.8825 10.6126 15.1461 12.4167 13.6735L14.1667 12.2449C17.4275 9.583 19.0579 8.25206 21 8.25206C22.9421 8.25206 24.5725 9.583 27.8333 12.2449L29.5833 13.6735C31.3874 15.1461 32.2894 15.8825 32.7697 16.8771C33.25 17.8716 33.25 19.0031 33.25 21.266V28.3333C33.25 31.476 33.25 33.0474 32.2249 34.0237C31.1997 35 29.5498 35 26.25 35H15.75C12.4502 35 10.8003 35 9.77513 34.0237C8.75 33.0474 8.75 31.476 8.75 28.3333V21.266Z" stroke="#33363F" stroke-width="2"/>
<path d="M25.375 35V26C25.375 25.4477 24.9273 25 24.375 25H17.625C17.0727 25 16.625 25.4477 16.625 26V35" stroke="#33363F" stroke-width="2" stroke-linecap="round" stroke-linejoin="round"/>
</svg>
