<svg width="50" height="50" viewBox="0 0 50 50" fill="none" xmlns="http://www.w3.org/2000/svg">
<path d="M29.3467 5.96766H28.8467V5.99259L28.8492 6.01741L29.3467 5.96766ZM29.3467 5.96764H29.8467V5.9427L29.8442 5.91788L29.3467 5.96764ZM29.6635 9.13563L29.166 9.18539V9.18539L29.6635 9.13563ZM30.4614 11.8149L30.6527 11.353V11.353L30.4614 11.8149ZM32.9201 10.4845L32.6035 10.0976L32.9201 10.4845ZM35.3842 8.46848L35.7008 8.85546L35.3842 8.46848ZM36.7676 7.67061L36.7427 8.16999L36.7676 7.67061ZM38.0648 8.60218L38.4184 8.24863H38.4184L38.0648 8.60218ZM41.3977 11.935L41.7513 11.5815L41.3977 11.935ZM42.3293 13.2323L42.8287 13.2074V13.2074L42.3293 13.2323ZM41.5314 14.6157L41.1444 14.2991L41.5314 14.6157ZM39.5153 17.0799L39.9023 17.3965V17.3965L39.5153 17.0799ZM40.8642 20.3364L40.8144 20.8339L40.8642 20.3364ZM44.0323 20.6532L44.0821 20.1557L44.0323 20.6532ZM45.5747 21.0673L45.204 21.4028L45.204 21.4028L45.5747 21.0673ZM45.5747 28.9327L45.204 28.5972L45.204 28.5972L45.5747 28.9327ZM44.0323 29.3468L44.0821 29.8443L44.0323 29.3468ZM40.865 29.6635L40.8152 29.166L40.865 29.6635ZM38.1857 30.4613L37.7238 30.27V30.27L38.1857 30.4613ZM39.5161 32.92L39.1291 33.2367L39.5161 32.92ZM41.5315 35.3833L41.1445 35.7H41.1445L41.5315 35.3833ZM42.3294 36.7668L42.8288 36.7917V36.7917L42.3294 36.7668ZM36.7677 42.3285L36.7926 42.8278H36.7926L36.7677 42.3285ZM35.3842 41.5306L35.7009 41.1436L35.3842 41.5306ZM32.9202 39.5145L32.5666 39.8681L32.5842 39.8857L32.6035 39.9015L32.9202 39.5145ZM32.9201 39.5145L33.2737 39.1609L33.2561 39.1433L33.2368 39.1275L32.9201 39.5145ZM30.4615 38.1841L30.6528 38.6461H30.6528L30.4615 38.1841ZM29.6636 40.8634L29.1661 40.8137V40.8137L29.6636 40.8634ZM29.3467 44.0323L29.8442 44.0821L29.3467 44.0323ZM28.9326 45.5748L28.5971 45.2041H28.5971L28.9326 45.5748ZM21.0673 45.5748L21.4028 45.2041H21.4028L21.0673 45.5748ZM20.6532 44.0323L20.1557 44.0821L20.6532 44.0323ZM20.3364 40.8643L19.8389 40.914L20.3364 40.8643ZM19.5385 38.185L19.7299 37.723H19.7299L19.5385 38.185ZM17.0798 39.5153L17.3965 39.9023H17.3965L17.0798 39.5153ZM14.6156 41.5315L14.9322 41.9185L14.6156 41.5315ZM13.2321 42.3294L13.2072 42.8288H13.2072L13.2321 42.3294ZM11.9349 41.3978L11.5814 41.7514L11.9349 41.3978ZM8.60205 38.065L8.95561 37.7114L8.60205 38.065ZM7.67048 36.7678L8.16986 36.7428V36.7428L7.67048 36.7678ZM8.46835 35.3843L8.85533 35.7009H8.85533L8.46835 35.3843ZM10.4845 32.9201L10.0975 32.6035H10.0975L10.4845 32.9201ZM9.13559 29.6636L9.18534 29.166H9.18534L9.13559 29.6636ZM5.96762 29.3468L6.01737 28.8492L5.99256 28.8468H5.96762V29.3468ZM5.9676 29.3468L5.91785 29.8443L5.94266 29.8468H5.9676V29.3468ZM4.42517 28.9327L4.7959 28.5972L4.7959 28.5972L4.42517 28.9327ZM4.16663 27.3567H3.66663H4.16663ZM4.16663 22.6433H4.66663H4.16663ZM4.42517 21.0673L4.7959 21.4028H4.7959L4.42517 21.0673ZM5.9676 20.6532V20.1532H5.94266L5.91785 20.1557L5.9676 20.6532ZM5.96762 20.6532V21.1532H5.99256L6.01737 21.1507L5.96762 20.6532ZM9.13637 20.3364L9.18612 20.8339L9.13637 20.3364ZM11.8157 19.5385L12.2776 19.7299L11.8157 19.5385ZM10.4853 17.0798L10.0983 17.3964L10.4853 17.0798ZM8.46845 14.6148L8.08147 14.9314L8.46845 14.6148ZM14.6157 8.46754L14.9323 8.08056V8.08056L14.6157 8.46754ZM17.0799 10.4837L17.3966 10.0967L17.0799 10.4837ZM20.3365 9.13482L19.839 9.08507V9.08507L20.3365 9.13482ZM20.6532 5.96766L21.1507 6.01741L21.1532 5.99259V5.96766H20.6532ZM20.6532 5.96764L20.1557 5.91788L20.1532 5.9427V5.96764H20.6532ZM21.0673 4.42521L21.4028 4.79594V4.79594L21.0673 4.42521ZM28.9326 4.42521L28.5971 4.79594V4.79594L28.9326 4.42521ZM29.8467 5.96766V5.96764H28.8467V5.96766H29.8467ZM30.161 9.08588L29.8442 5.9179L28.8492 6.01741L29.166 9.18539L30.161 9.08588ZM30.6527 11.353C30.6015 11.3318 30.4999 11.2718 30.4013 10.88C30.3025 10.4875 30.2444 9.91955 30.161 9.08588L29.166 9.18539C29.246 9.98525 29.3104 10.6425 29.4315 11.124C29.5528 11.6062 29.7685 12.0691 30.27 12.2769L30.6527 11.353ZM32.6035 10.0976C31.955 10.6281 31.5123 10.9886 31.1649 11.1963C30.8182 11.4037 30.704 11.3742 30.6527 11.353L30.27 12.2769C30.7716 12.4846 31.2514 12.3097 31.6782 12.0546C32.1043 11.7998 32.6145 11.3806 33.2367 10.8715L32.6035 10.0976ZM35.0675 8.0815L32.6035 10.0976L33.2367 10.8715L35.7008 8.85546L35.0675 8.0815ZM36.7925 7.17123C36.4589 7.15459 36.177 7.27148 35.9167 7.43381C35.6685 7.58858 35.3901 7.81761 35.0675 8.0815L35.7008 8.85546C36.044 8.57464 36.2649 8.39514 36.4458 8.28236C36.6145 8.17713 36.6915 8.16743 36.7427 8.16999L36.7925 7.17123ZM38.4184 8.24863C38.1237 7.95396 37.8695 7.69836 37.6379 7.51965C37.395 7.33223 37.1261 7.18787 36.7925 7.17123L36.7427 8.16999C36.794 8.17255 36.8695 8.18985 37.027 8.31135C37.1957 8.44156 37.3977 8.64216 37.7113 8.95574L38.4184 8.24863ZM41.7513 11.5815L38.4184 8.24863L37.7113 8.95574L41.0442 12.2886L41.7513 11.5815ZM42.8287 13.2074C42.812 12.8738 42.6677 12.6049 42.4802 12.362C42.3015 12.1304 42.0459 11.8762 41.7513 11.5815L41.0442 12.2886C41.3577 12.6022 41.5583 12.8042 41.6885 12.9729C41.81 13.1303 41.8273 13.2059 41.8299 13.2572L42.8287 13.2074ZM41.9184 14.9324C42.1823 14.6098 42.4113 14.3314 42.5661 14.0832C42.7284 13.8229 42.8453 13.5409 42.8287 13.2074L41.8299 13.2572C41.8325 13.3084 41.8228 13.3853 41.7175 13.5541C41.6048 13.735 41.4252 13.9559 41.1444 14.2991L41.9184 14.9324ZM39.9023 17.3965L41.9184 14.9324L41.1444 14.2991L39.1283 16.7633L39.9023 17.3965ZM38.6469 19.3472C38.6256 19.296 38.5962 19.1818 38.8035 18.835C39.0113 18.4876 39.3717 18.0449 39.9023 17.3965L39.1283 16.7633C38.6193 17.3854 38.2001 17.8957 37.9453 18.3218C37.6901 18.7485 37.5152 19.2284 37.723 19.7299L38.6469 19.3472ZM40.914 19.8389C40.0803 19.7555 39.5124 19.6974 39.1198 19.5987C38.728 19.5001 38.6681 19.3985 38.6469 19.3472L37.723 19.7299C37.9307 20.2315 38.3937 20.4471 38.8759 20.5684C39.3573 20.6896 40.0146 20.754 40.8144 20.8339L40.914 19.8389ZM44.0821 20.1557L40.914 19.8389L40.8144 20.8339L43.9825 21.1507L44.0821 20.1557ZM45.9455 20.7318C45.7214 20.4842 45.4394 20.3675 45.1405 20.2982C44.8555 20.2321 44.4967 20.1972 44.0821 20.1557L43.9825 21.1507C44.4238 21.1949 44.707 21.2242 44.9146 21.2723C45.1083 21.3172 45.1696 21.3648 45.204 21.4028L45.9455 20.7318ZM46.3333 22.6433C46.3333 22.2266 46.3343 21.8661 46.2969 21.576C46.2577 21.2717 46.1696 20.9795 45.9455 20.7318L45.204 21.4028C45.2385 21.4409 45.2797 21.5065 45.3051 21.7038C45.3323 21.9152 45.3333 22.1998 45.3333 22.6433H46.3333ZM46.3333 27.3567V22.6433H45.3333V27.3567H46.3333ZM45.9455 29.2682C46.1696 29.0205 46.2577 28.7283 46.2969 28.424C46.3343 28.1339 46.3333 27.7734 46.3333 27.3567H45.3333C45.3333 27.8002 45.3323 28.0848 45.3051 28.2962C45.2797 28.4935 45.2385 28.5591 45.204 28.5972L45.9455 29.2682ZM44.0821 29.8443C44.4967 29.8028 44.8555 29.7679 45.1405 29.7018C45.4394 29.6325 45.7214 29.5158 45.9455 29.2682L45.204 28.5972C45.1696 28.6352 45.1083 28.6828 44.9146 28.7277C44.707 28.7758 44.4238 28.8051 43.9826 28.8492L44.0821 29.8443ZM40.9147 30.161L44.0821 29.8443L43.9826 28.8492L40.8152 29.166L40.9147 30.161ZM38.6476 30.6527C38.6689 30.6014 38.7288 30.4998 39.1206 30.4013C39.5132 30.3025 40.0811 30.2444 40.9147 30.161L40.8152 29.166C40.0154 29.246 39.3581 29.3104 38.8766 29.4315C38.3945 29.5528 37.9315 29.7684 37.7238 30.27L38.6476 30.6527ZM39.9031 32.6034C39.3725 31.955 39.0121 31.5123 38.8043 31.1649C38.5969 30.8181 38.6264 30.7039 38.6476 30.6527L37.7238 30.27C37.516 30.7716 37.6909 31.2514 37.9461 31.6781C38.2009 32.1042 38.6201 32.6145 39.1291 33.2367L39.9031 32.6034ZM41.9185 35.0667L39.9031 32.6034L39.1291 33.2367L41.1445 35.7L41.9185 35.0667ZM42.8288 36.7917C42.8454 36.4581 42.7285 36.1762 42.5662 35.9159C42.4114 35.6676 42.1824 35.3892 41.9185 35.0667L41.1445 35.7C41.4253 36.0432 41.6048 36.2641 41.7176 36.445C41.8229 36.6137 41.8326 36.6907 41.83 36.7419L42.8288 36.7917ZM41.7514 38.4176C42.046 38.1229 42.3016 37.8687 42.4803 37.6371C42.6678 37.3942 42.8121 37.1253 42.8288 36.7917L41.83 36.7419C41.8274 36.7931 41.8101 36.8687 41.6886 37.0262C41.5584 37.1949 41.3578 37.3969 41.0442 37.7105L41.7514 38.4176ZM38.4185 41.7504L41.7514 38.4176L41.0442 37.7105L37.7114 41.0433L38.4185 41.7504ZM36.7926 42.8278C37.1262 42.8112 37.3951 42.6668 37.638 42.4794C37.8696 42.3007 38.1238 42.0451 38.4185 41.7504L37.7114 41.0433C37.3978 41.3569 37.1958 41.5575 37.0271 41.6877C36.8696 41.8092 36.7941 41.8265 36.7428 41.8291L36.7926 42.8278ZM35.0676 41.9176C35.3902 42.1815 35.6686 42.4105 35.9168 42.5653C36.1771 42.7276 36.459 42.8445 36.7926 42.8278L36.7428 41.8291C36.6916 41.8316 36.6146 41.8219 36.4459 41.7167C36.265 41.6039 36.0441 41.4244 35.7009 41.1436L35.0676 41.9176ZM32.6035 39.9015L35.0676 41.9176L35.7009 41.1436L33.2368 39.1275L32.6035 39.9015ZM32.5666 39.8681L32.5666 39.8681L33.2737 39.161L33.2737 39.1609L32.5666 39.8681ZM30.6528 38.6461C30.7041 38.6249 30.8183 38.5954 31.165 38.8027C31.5124 39.0105 31.9551 39.3709 32.6035 39.9015L33.2368 39.1275C32.6146 38.6185 32.1043 38.1993 31.6783 37.9445C31.2515 37.6893 30.7717 37.5145 30.2701 37.7222L30.6528 38.6461ZM30.1611 40.9132C30.2445 40.0795 30.3026 39.5116 30.4014 39.1191C30.5 38.7272 30.6015 38.6673 30.6528 38.6461L30.2701 37.7222C29.7686 37.93 29.5529 38.3929 29.4316 38.8751C29.3105 39.3566 29.2461 40.0138 29.1661 40.8137L30.1611 40.9132ZM29.8442 44.0821L30.1611 40.9132L29.1661 40.8137L28.8492 43.9826L29.8442 44.0821ZM29.2681 45.9455C29.5158 45.7214 29.6325 45.4394 29.7018 45.1405C29.7679 44.8556 29.8028 44.4968 29.8442 44.0821L28.8492 43.9826C28.8051 44.4239 28.7758 44.707 28.7276 44.9146C28.6827 45.1084 28.6352 45.1696 28.5971 45.2041L29.2681 45.9455ZM27.3567 46.3333C27.7734 46.3333 28.1339 46.3343 28.424 46.2969C28.7283 46.2577 29.0205 46.1696 29.2682 45.9455L28.5971 45.2041C28.5591 45.2385 28.4934 45.2797 28.2962 45.3051C28.0848 45.3324 27.8001 45.3333 27.3567 45.3333V46.3333ZM22.6433 46.3333H27.3567V45.3333H22.6433V46.3333ZM20.7318 45.9455C20.9794 46.1696 21.2716 46.2577 21.5759 46.2969C21.866 46.3343 22.2265 46.3333 22.6433 46.3333V45.3333C22.1998 45.3333 21.9151 45.3324 21.7037 45.3051C21.5065 45.2797 21.4408 45.2385 21.4028 45.2041L20.7318 45.9455ZM20.1557 44.0821C20.1971 44.4968 20.232 44.8556 20.2981 45.1405C20.3674 45.4394 20.4841 45.7214 20.7318 45.9455L21.4028 45.2041C21.3647 45.1696 21.3172 45.1084 21.2723 44.9146C21.2241 44.707 21.1948 44.4239 21.1507 43.9826L20.1557 44.0821ZM19.8389 40.914L20.1557 44.0821L21.1507 43.9826L20.8339 40.8145L19.8389 40.914ZM19.3472 38.6469C19.3985 38.6681 19.5 38.7281 19.5986 39.1199C19.6974 39.5124 19.7555 40.0803 19.8389 40.914L20.8339 40.8145C20.7539 40.0146 20.6895 39.3574 20.5684 38.8759C20.4471 38.3937 20.2314 37.9308 19.7299 37.723L19.3472 38.6469ZM17.3965 39.9023C18.0449 39.3718 18.4876 39.0113 18.835 38.8036C19.1817 38.5962 19.2959 38.6257 19.3472 38.6469L19.7299 37.723C19.2283 37.5153 18.7485 37.6901 18.3217 37.9453C17.8956 38.2001 17.3854 38.6193 16.7632 39.1284L17.3965 39.9023ZM14.9322 41.9185L17.3965 39.9023L16.7632 39.1284L14.299 41.1446L14.9322 41.9185ZM13.2072 42.8288C13.5408 42.8454 13.8227 42.7285 14.0831 42.5662C14.3313 42.4114 14.6097 42.1824 14.9322 41.9185L14.299 41.1446C13.9558 41.4254 13.7348 41.6049 13.554 41.7177C13.3852 41.8229 13.3083 41.8326 13.257 41.83L13.2072 42.8288ZM11.5814 41.7514C11.876 42.0461 12.1303 42.3017 12.3618 42.4804C12.6047 42.6678 12.8736 42.8121 13.2072 42.8288L13.257 41.83C13.2058 41.8275 13.1302 41.8102 12.9728 41.6887C12.804 41.5585 12.6021 41.3579 12.2885 41.0443L11.5814 41.7514ZM8.2485 38.4185L11.5814 41.7514L12.2885 41.0443L8.95561 37.7114L8.2485 38.4185ZM7.1711 36.7927C7.18774 37.1262 7.33209 37.3952 7.51952 37.638C7.69823 37.8696 7.95383 38.1238 8.2485 38.4185L8.95561 37.7114C8.64203 37.3978 8.44143 37.1959 8.31122 37.0271C8.18972 36.8697 8.17242 36.7941 8.16986 36.7428L7.1711 36.7927ZM8.08137 35.0677C7.81748 35.3902 7.58845 35.6686 7.43368 35.9168C7.27135 36.1771 7.15446 36.4591 7.1711 36.7927L8.16986 36.7428C8.1673 36.6916 8.177 36.6147 8.28223 36.4459C8.39501 36.2651 8.57451 36.0441 8.85533 35.7009L8.08137 35.0677ZM10.0975 32.6035L8.08137 35.0677L8.85533 35.7009L10.8715 33.2367L10.0975 32.6035ZM11.3529 30.6527C11.3742 30.704 11.4036 30.8182 11.1963 31.165C10.9885 31.5124 10.6281 31.955 10.0975 32.6035L10.8715 33.2367C11.3805 32.6146 11.7997 32.1043 12.0545 31.6782C12.3097 31.2515 12.4846 30.7716 12.2768 30.2701L11.3529 30.6527ZM9.08584 30.1611C9.91951 30.2444 10.4874 30.3026 10.88 30.4013C11.2718 30.4999 11.3317 30.6015 11.3529 30.6527L12.2768 30.2701C12.0691 29.7685 11.6061 29.5528 11.1239 29.4315C10.6425 29.3104 9.98521 29.246 9.18534 29.166L9.08584 30.1611ZM5.91787 29.8443L9.08584 30.1611L9.18534 29.166L6.01737 28.8492L5.91787 29.8443ZM5.9676 29.8468H5.96762V28.8468H5.9676V29.8468ZM4.05445 29.2682C4.27856 29.5158 4.56057 29.6325 4.85943 29.7018C5.14439 29.7679 5.50319 29.8028 5.91785 29.8443L6.01735 28.8492C5.57609 28.8051 5.29295 28.7758 5.08531 28.7277C4.89158 28.6828 4.83033 28.6352 4.7959 28.5972L4.05445 29.2682ZM3.66663 27.3567C3.66663 27.7734 3.66565 28.1339 3.70305 28.424C3.74226 28.7283 3.83033 29.0205 4.05445 29.2682L4.7959 28.5972C4.76147 28.5591 4.72026 28.4935 4.69484 28.2962C4.6676 28.0848 4.66663 27.8002 4.66663 27.3567H3.66663ZM3.66663 22.6433L3.66663 27.3567H4.66663L4.66663 22.6433H3.66663ZM4.05445 20.7318C3.83033 20.9795 3.74226 21.2717 3.70305 21.576C3.66565 21.8661 3.66663 22.2266 3.66663 22.6433H4.66663C4.66663 22.1998 4.6676 21.9152 4.69484 21.7038C4.72026 21.5065 4.76147 21.4409 4.7959 21.4028L4.05445 20.7318ZM5.91785 20.1557C5.50319 20.1972 5.14439 20.2321 4.85943 20.2982C4.56057 20.3675 4.27856 20.4842 4.05445 20.7318L4.7959 21.4028C4.83033 21.3648 4.89158 21.3172 5.08531 21.2723C5.29295 21.2242 5.57609 21.1949 6.01735 21.1507L5.91785 20.1557ZM5.96762 20.1532H5.9676V21.1532H5.96762V20.1532ZM9.08662 19.8388L5.91787 20.1557L6.01737 21.1507L9.18612 20.8339L9.08662 19.8388ZM11.3537 19.3472C11.3325 19.3984 11.2726 19.5 10.8807 19.5986C10.4882 19.6973 9.92029 19.7555 9.08662 19.8388L9.18612 20.8339C9.98599 20.7539 10.6432 20.6895 11.1247 20.5684C11.6069 20.4471 12.0698 20.2314 12.2776 19.7299L11.3537 19.3472ZM10.0983 17.3964C10.6288 18.0449 10.9893 18.4875 11.1971 18.8349C11.4044 19.1817 11.375 19.2959 11.3537 19.3472L12.2776 19.7299C12.4853 19.2283 12.3105 18.7484 12.0553 18.3217C11.8005 17.8956 11.3813 17.3853 10.8723 16.7632L10.0983 17.3964ZM8.08147 14.9314L10.0983 17.3964L10.8723 16.7632L8.85543 14.2982L8.08147 14.9314ZM7.1712 13.2064C7.15456 13.54 7.27144 13.8219 7.43377 14.0823C7.58855 14.3305 7.81758 14.6089 8.08147 14.9314L8.85543 14.2982C8.57461 13.955 8.3951 13.734 8.28232 13.5532C8.1771 13.3844 8.1674 13.3075 8.16996 13.2562L7.1712 13.2064ZM8.2486 11.5806C7.95392 11.8752 7.69833 12.1294 7.51962 12.361C7.33219 12.6039 7.18784 12.8728 7.1712 13.2064L8.16996 13.2562C8.17251 13.205 8.18982 13.1294 8.31131 12.972C8.44153 12.8032 8.64213 12.6012 8.95571 12.2877L8.2486 11.5806ZM11.5815 8.24769L8.2486 11.5806L8.95571 12.2877L12.2886 8.95479L11.5815 8.24769ZM13.2073 7.17029C12.8737 7.18692 12.6048 7.33128 12.3619 7.51871C12.1304 7.69742 11.8761 7.95301 11.5815 8.24769L12.2886 8.95479C12.6021 8.64121 12.8041 8.44062 12.9729 8.3104C13.1303 8.1889 13.2059 8.1716 13.2571 8.16904L13.2073 7.17029ZM14.9323 8.08056C14.6098 7.81667 14.3314 7.58764 14.0832 7.43286C13.8228 7.27053 13.5409 7.15365 13.2073 7.17029L13.2571 8.16904C13.3084 8.16649 13.3853 8.17619 13.5541 8.28141C13.7349 8.39419 13.9559 8.5737 14.2991 8.85452L14.9323 8.08056ZM17.3966 10.0967L14.9323 8.08056L14.2991 8.85452L16.7633 10.8707L17.3966 10.0967ZM19.3473 11.3522C19.296 11.3734 19.1818 11.4029 18.8351 11.1955C18.4877 10.9878 18.045 10.6273 17.3966 10.0967L16.7633 10.8707C17.3855 11.3797 17.8957 11.799 18.3218 12.0538C18.7486 12.3089 19.2284 12.4838 19.73 12.276L19.3473 11.3522ZM19.839 9.08507C19.7556 9.91874 19.6975 10.4866 19.5987 10.8792C19.5001 11.271 19.3986 11.3309 19.3473 11.3522L19.73 12.276C20.2315 12.0683 20.4472 11.6053 20.5685 11.1232C20.6896 10.6417 20.754 9.98444 20.834 9.18457L19.839 9.08507ZM20.1557 5.9179L19.839 9.08507L20.834 9.18457L21.1507 6.01741L20.1557 5.9179ZM20.1532 5.96764V5.96766H21.1532V5.96764H20.1532ZM20.7318 4.05448C20.4841 4.2786 20.3674 4.56061 20.2981 4.85947C20.2321 5.14443 20.1971 5.50323 20.1557 5.91788L21.1507 6.01739C21.1948 5.57613 21.2241 5.29299 21.2723 5.08535C21.3172 4.89162 21.3647 4.83037 21.4028 4.79594L20.7318 4.05448ZM22.6433 3.66666C22.2265 3.66666 21.866 3.66569 21.5759 3.70308C21.2716 3.7423 20.9794 3.83037 20.7318 4.05449L21.4028 4.79594C21.4408 4.76151 21.5065 4.7203 21.7037 4.69488C21.9151 4.66764 22.1998 4.66666 22.6433 4.66666V3.66666ZM27.3567 3.66666H22.6433V4.66666H27.3567V3.66666ZM29.2682 4.05449C29.0205 3.83037 28.7283 3.7423 28.424 3.70308C28.1339 3.66569 27.7734 3.66666 27.3567 3.66666V4.66666C27.8001 4.66666 28.0848 4.66764 28.2962 4.69488C28.4934 4.7203 28.5591 4.76151 28.5971 4.79594L29.2682 4.05449ZM29.8442 5.91788C29.8028 5.50323 29.7679 5.14443 29.7018 4.85947C29.6325 4.56061 29.5158 4.2786 29.2682 4.05448L28.5971 4.79594C28.6352 4.83037 28.6827 4.89162 28.7276 5.08535C28.7758 5.29299 28.8051 5.57613 28.8492 6.01739L29.8442 5.91788ZM32.8333 25C32.8333 29.3262 29.3262 32.8333 25 32.8333V33.8333C29.8785 33.8333 33.8333 29.8785 33.8333 25H32.8333ZM25 17.1667C29.3262 17.1667 32.8333 20.6738 32.8333 25H33.8333C33.8333 20.1215 29.8785 16.1667 25 16.1667V17.1667ZM17.1666 25C17.1666 20.6738 20.6737 17.1667 25 17.1667V16.1667C20.1214 16.1667 16.1666 20.1215 16.1666 25H17.1666ZM25 32.8333C20.6737 32.8333 17.1666 29.3262 17.1666 25H16.1666C16.1666 29.8785 20.1214 33.8333 25 33.8333V32.8333Z" fill="white"/>
</svg>
