<svg width="41" height="41" viewBox="0 0 41 41" fill="none" xmlns="http://www.w3.org/2000/svg">
<path d="M10.25 22.2083V9.04167C10.25 8.80597 10.25 8.68812 10.3232 8.6149C10.3964 8.54167 10.5143 8.54167 10.75 8.54167H18.1736C18.4743 8.54167 18.6247 8.54167 18.7455 8.61635C18.8663 8.69102 18.9336 8.8255 19.0681 9.09446L20.2236 11.4056C20.3581 11.6745 20.4253 11.809 20.5462 11.8837C20.667 11.9583 20.8173 11.9583 21.118 11.9583H30.25C30.4857 11.9583 30.6036 11.9583 30.6768 12.0316C30.75 12.1048 30.75 12.2226 30.75 12.4583V25.125C30.75 25.3607 30.75 25.4786 30.6768 25.5518C30.6036 25.625 30.4857 25.625 30.25 25.625H21.118C20.8173 25.625 20.667 25.625 20.5462 25.5503C20.4253 25.4757 20.3581 25.3412 20.2236 25.0722L19.0681 22.7611C18.9336 22.4922 18.8663 22.3577 18.7455 22.283C18.6247 22.2083 18.4743 22.2083 18.1736 22.2083H10.25ZM10.25 22.2083V32.4583" stroke="#33363F" stroke-width="2" stroke-linecap="round"/>
</svg>
